<svg width="104" height="504" viewBox="0 0 104 504" fill="none" xmlns="http://www.w3.org/2000/svg">
<path d="M78 54L90 49V85C88.5 91.5 79.5 93.5 78 89V54Z" fill="#969A9A" stroke="black"/>
<path d="M90 59.5L102 54L91.5 48L78 54L90 59.5Z" fill="#969A9A" stroke="black"/>
<path d="M79 30.4569C80.2011 35.5634 81.7675 35.0548 84.75 33.3212C84.5852 29.6908 84.7827 27.7247 87.625 24.7285C92.3771 23.8612 94.4774 24.2792 96.25 27.5927V32.5C95.4559 35.2393 92.7012 38.3734 87.625 44V53.3708C89.8362 54.1622 91.1681 54.2559 93.375 53.3708V44.7781C98.869 39.6264 101.085 36.9883 102 33.3212V27.5927C99.9878 21.4462 97.5607 19.3213 90.5 19C81.5491 19.3587 80.4113 23.1391 79 30.4569Z" fill="#969A9A" stroke="black"/>
<path d="M1 65.064C12 29.4999 36 10.9999 89.5246 0.999911C94 0.163662 94 9.00011 89.5246 8.99991C47.5 16.4999 23 31.4999 9.5 65.064L10.8361 496.996C10.608 501.877 1.28532 505.743 1 501V65.064Z" fill="#969A9A" stroke="black"/>
<path d="M86.0001 26.8684V4.13158C86.0117 -0.228307 94.0136 -0.0274985 94.0001 4.13158V26.8684C93.9715 31.2614 85.9712 31.1321 86.0001 26.8684Z" fill="#969A9A" stroke="black"/>
</svg>
